<?xml version="1.0" encoding="utf-8"?><svg xmlns="http://www.w3.org/2000/svg" xmlns:xlink="http://www.w3.org/1999/xlink"><symbol viewBox="0 0 28 28" id="bell" xmlns="http://www.w3.org/2000/svg"><path d="M14.25 26.5a.246.246 0 0 0-.25-.25A2.261 2.261 0 0 1 11.75 24c0-.141-.109-.25-.25-.25s-.25.109-.25.25A2.754 2.754 0 0 0 14 26.75c.141 0 .25-.109.25-.25zM27 22c0 1.094-.906 2-2 2h-7c0 2.203-1.797 4-4 4s-4-1.797-4-4H3c-1.094 0-2-.906-2-2 2.312-1.953 5-5.453 5-13 0-3 2.484-6.281 6.625-6.891A1.574 1.574 0 0 1 12.5 1.5a1.5 1.5 0 0 1 3 0c0 .219-.047.422-.125.609C19.516 2.718 22 6 22 9c0 7.547 2.688 11.047 5 13z"/></symbol><symbol viewBox="0 0 28 28" id="briefcase" xmlns="http://www.w3.org/2000/svg"><path d="M10 4h8V2h-8v2zm18 10v7.5c0 1.375-1.125 2.5-2.5 2.5h-23A2.507 2.507 0 0 1 0 21.5V14h10.5v2.5c0 .547.453 1 1 1h5c.547 0 1-.453 1-1V14H28zm-12 0v2h-4v-2h4zm12-7.5v6H0v-6C0 5.125 1.125 4 2.5 4H8V1.5A1.5 1.5 0 0 1 9.5 0h9A1.5 1.5 0 0 1 20 1.5V4h5.5C26.875 4 28 5.125 28 6.5z"/></symbol><symbol viewBox="0 0 26 28" id="calendar" xmlns="http://www.w3.org/2000/svg"><path d="M2 26h4.5v-4.5H2V26zm5.5 0h5v-4.5h-5V26zM2 20.5h4.5v-5H2v5zm5.5 0h5v-5h-5v5zm-5.5-6h4.5V10H2v4.5zM13.5 26h5v-4.5h-5V26zm-6-11.5h5V10h-5v4.5zm12 11.5H24v-4.5h-4.5V26zm-6-5.5h5v-5h-5v5zM8 7V2.5c0-.266-.234-.5-.5-.5h-1c-.266 0-.5.234-.5.5V7c0 .266.234.5.5.5h1c.266 0 .5-.234.5-.5zm11.5 13.5H24v-5h-4.5v5zm-6-6h5V10h-5v4.5zm6 0H24V10h-4.5v4.5zM20 7V2.5c0-.266-.234-.5-.5-.5h-1c-.266 0-.5.234-.5.5V7c0 .266.234.5.5.5h1c.266 0 .5-.234.5-.5zm6-1v20c0 1.094-.906 2-2 2H2c-1.094 0-2-.906-2-2V6c0-1.094.906-2 2-2h2V2.5C4 1.125 5.125 0 6.5 0h1C8.875 0 10 1.125 10 2.5V4h6V2.5C16 1.125 17.125 0 18.5 0h1C20.875 0 22 1.125 22 2.5V4h2c1.094 0 2 .906 2 2z"/></symbol><symbol viewBox="0 0 304 448" id="chevron-right" xmlns="http://www.w3.org/2000/svg"><path d="M276.75 219.25l-185.5 185.5a15.844 15.844 0 0 1-22.5 0l-41.5-41.5a15.844 15.844 0 0 1 0-22.5L160 208 27.25 75.25a15.844 15.844 0 0 1 0-22.5l41.5-41.5a15.844 15.844 0 0 1 22.5 0l185.5 185.5a15.844 15.844 0 0 1 0 22.5z"/></symbol><symbol viewBox="0 0 28 28" id="dashboard" xmlns="http://www.w3.org/2000/svg"><path d="M6 18c0-1.109-.891-2-2-2s-2 .891-2 2 .891 2 2 2 2-.891 2-2zm3-7c0-1.109-.891-2-2-2s-2 .891-2 2 .891 2 2 2 2-.891 2-2zm6.687 7.516l1.578-5.969a1.017 1.017 0 0 0-.719-1.219 1.004 1.004 0 0 0-1.219.719l-1.578 5.969a2.991 2.991 0 0 0-2.656 2.219 3.013 3.013 0 0 0 2.141 3.672 3.013 3.013 0 0 0 3.672-2.141 3.03 3.03 0 0 0-1.219-3.25zM26 18c0-1.109-.891-2-2-2s-2 .891-2 2 .891 2 2 2 2-.891 2-2zM16 8c0-1.109-.891-2-2-2s-2 .891-2 2 .891 2 2 2 2-.891 2-2zm7 3c0-1.109-.891-2-2-2s-2 .891-2 2 .891 2 2 2 2-.891 2-2zm5 7c0 2.688-.766 5.281-2.203 7.547a1.01 1.01 0 0 1-.844.453H3.047c-.344 0-.656-.172-.844-.453A13.997 13.997 0 0 1 0 18C0 10.281 6.281 4 14 4s14 6.281 14 14z"/></symbol><symbol viewBox="0 0 27 28" id="pie-chart" xmlns="http://www.w3.org/2000/svg"><path d="M12 13.906l8.531 8.531A11.957 11.957 0 0 1 12 26C5.375 26 0 20.625 0 14S5.375 2 12 2v11.906zm2.922.094H27c0 3.328-1.359 6.359-3.563 8.531zM26 12H14V0c6.625 0 12 5.375 12 12z"/></symbol><symbol viewBox="0 0 26 28" id="search" xmlns="http://www.w3.org/2000/svg"><path d="M18 13c0-3.859-3.141-7-7-7s-7 3.141-7 7 3.141 7 7 7 7-3.141 7-7zm8 13c0 1.094-.906 2-2 2a1.96 1.96 0 0 1-1.406-.594l-5.359-5.344a10.971 10.971 0 0 1-6.234 1.937c-6.078 0-11-4.922-11-11s4.922-11 11-11 11 4.922 11 11c0 2.219-.672 4.406-1.937 6.234l5.359 5.359c.359.359.578.875.578 1.406z"/></symbol></svg>